<svg width="78" height="85" viewBox="0 0 78 85" fill="none" xmlns="http://www.w3.org/2000/svg">
<rect x="31.5178" y="29.1422" width="13" height="55" rx="3" fill="#09131A"/>
<rect x="7.51776" y="29.1422" width="13" height="55" rx="3" fill="#09131A"/>
<rect x="55.5178" y="29.1422" width="13" height="55" rx="3" fill="#09131A"/>
<path fill-rule="evenodd" clip-rule="evenodd" d="M37.2332 0.335119C38.0974 -0.111705 39.1247 -0.111707 39.9889 0.335118L75.5953 18.7447C78.3878 20.1886 77.3612 24.4096 74.2175 24.4096H3.00462C-0.139101 24.4096 -1.16575 20.1886 1.6268 18.7447L37.2332 0.335119ZM37.944 19.4209C41.7466 19.4209 44.8292 16.3383 44.8292 12.5357C44.8292 8.73307 41.7466 5.65044 37.944 5.65044C34.1414 5.65044 31.0588 8.73307 31.0588 12.5357C31.0588 16.3383 34.1414 19.4209 37.944 19.4209Z" fill="#09131A"/>
</svg>
